<svg width="24" height="16" viewBox="0 0 24 16" fill="none" xmlns="http://www.w3.org/2000/svg">
<path fill-rule="evenodd" clip-rule="evenodd" d="M5.38508 15.4316C8.04487 16.3706 11.3158 15.6691 13.0861 13.2773C14.3782 11.6007 14.6724 9.36693 14.5322 7.28066C12.2538 7.25837 9.97506 7.26647 7.7013 7.26931C7.69667 8.12116 7.7013 8.96977 7.704 9.82122C9.06749 9.86094 10.4321 9.84351 11.7968 9.87188C11.4528 11.1116 10.6672 12.2641 9.47746 12.7119C7.17783 13.7741 4.24627 12.3857 3.52245 9.85445C2.64962 7.42939 4.07911 4.50382 6.43896 3.79948C7.90165 3.25968 9.40952 3.86757 10.6614 4.66552C11.2945 4.04345 11.8886 3.3768 12.4723 2.70407C11.0486 1.45506 9.22113 0.688719 7.34229 0.856496C3.65524 0.902696 0.428356 4.47546 0.568488 8.34284C0.506722 11.4727 2.56044 14.4582 5.38508 15.4316Z" fill="white"/>
<path fill-rule="evenodd" clip-rule="evenodd" d="M19.5582 6.82714C18.8907 6.83318 18.2274 6.83733 17.5641 6.84035V8.82677C18.2274 8.82978 18.8949 8.83243 19.5582 8.83997C19.5642 9.50312 19.5642 10.1663 19.5714 10.8336C20.2317 10.8336 20.895 10.829 21.5583 10.8336C21.5613 10.1663 21.5643 9.50312 21.5715 8.83695C22.2348 8.83393 22.9012 8.82978 23.5641 8.82677V6.84035C22.9012 6.83733 22.2348 6.83431 21.5715 6.82714C21.567 6.164 21.5613 5.49821 21.5583 4.83507C20.895 4.83356 20.2347 4.83356 19.5744 4.83356C19.5687 5.49821 19.5612 6.164 19.5582 6.82714Z" fill="white"/>
<path fill-rule="evenodd" clip-rule="evenodd" d="M7.34253 0.856496C9.22144 0.688719 11.049 1.45506 12.4728 2.70407C11.8891 3.3768 11.2949 4.04345 10.6618 4.66552C9.40829 3.86757 7.90192 3.25806 6.43762 3.79948C4.07769 4.50382 2.64815 7.42939 3.52255 9.85283C4.24485 12.3857 7.17807 13.7741 9.47778 12.7103C10.6676 12.2641 11.4517 11.1116 11.7972 9.87188C10.4325 9.84351 9.06779 9.86094 7.70426 9.82122C7.70001 8.96977 7.69692 8.12116 7.70001 7.26931C9.9754 7.26485 12.2543 7.25837 14.5327 7.27904C14.6713 9.36693 14.3787 11.6007 13.085 13.2773C11.3162 15.6691 8.04514 16.3706 5.3837 15.4316C2.56051 14.4582 0.50672 11.4727 0.568488 8.34284C0.428351 4.47546 3.65535 0.902696 7.34253 0.856496Z" fill="white"/>
<path fill-rule="evenodd" clip-rule="evenodd" d="M21.5583 4.83356C21.5613 5.49838 21.567 6.16433 21.5715 6.82765C22.2348 6.83368 22.9012 6.83783 23.5641 6.84085V8.82777C22.9012 8.83079 22.2348 8.83343 21.5715 8.83796C21.5643 9.50429 21.5613 10.1676 21.5583 10.8336C20.895 10.8305 20.2305 10.8336 19.5714 10.8336C19.5642 10.1676 19.5642 9.50429 19.5582 8.84098C18.8949 8.83343 18.2274 8.83079 17.5641 8.82777V6.84085C18.2274 6.83632 18.8907 6.83368 19.5582 6.82765C19.5612 6.16433 19.5672 5.49838 19.5744 4.83356H21.5583Z" fill="white"/>
</svg>
