<svg width="25" height="25" viewBox="0 0 25 25" fill="none" xmlns="http://www.w3.org/2000/svg">
<path fill-rule="evenodd" clip-rule="evenodd" d="M11.5384 2.51524C11.9524 2.51524 12.2884 2.85124 12.2884 3.26524C12.2884 3.67924 11.9524 4.01524 11.5384 4.01524H7.79939C5.21539 4.01524 3.54639 5.78524 3.54639 8.52424V16.8382C3.54639 19.5772 5.21539 21.3472 7.79939 21.3472H16.6234C19.2074 21.3472 20.8774 19.5772 20.8774 16.8382V12.8102C20.8774 12.3962 21.2134 12.0602 21.6274 12.0602C22.0414 12.0602 22.3774 12.3962 22.3774 12.8102V16.8382C22.3774 20.4322 20.0644 22.8472 16.6234 22.8472H7.79939C4.35839 22.8472 2.04639 20.4322 2.04639 16.8382V8.52424C2.04639 4.93024 4.35839 2.51524 7.79939 2.51524H11.5384ZM20.248 3.39384L21.465 4.61084C22.058 5.20284 22.384 5.98984 22.383 6.82784C22.383 7.66584 22.057 8.45184 21.465 9.04284L13.956 16.5518C13.405 17.1028 12.671 17.4068 11.891 17.4068H8.14499C7.94299 17.4068 7.74899 17.3248 7.60799 17.1798C7.46699 17.0358 7.38999 16.8408 7.39499 16.6378L7.48899 12.8588C7.50799 12.1068 7.81099 11.3998 8.34299 10.8668H8.34399L15.817 3.39384C17.039 2.17384 19.026 2.17384 20.248 3.39384ZM15.2014 6.12984L9.40399 11.9278C9.14499 12.1868 8.99799 12.5308 8.98899 12.8958L8.91399 15.9068H11.891C12.271 15.9068 12.627 15.7598 12.896 15.4908L18.7284 9.65684L15.2014 6.12984ZM16.877 4.45484L16.2614 5.06884L19.7884 8.59684L20.405 7.98184C20.713 7.67384 20.883 7.26384 20.883 6.82784C20.883 6.39084 20.713 5.97984 20.405 5.67184L19.188 4.45484C18.551 3.81984 17.515 3.81984 16.877 4.45484Z" fill="#12CDD9"/>
</svg>
