<svg width="200" height="200" viewBox="0 0 200 200" fill="none" xmlns="http://www.w3.org/2000/svg">
<path d="M84.5552 55.1724C79.506 55.1724 74.6636 57.2746 71.0933 61.0164C67.523 64.7583 65.5173 69.8333 65.5173 75.1251V128.332C65.5188 131.88 66.4229 135.363 68.1362 138.423C69.8496 141.482 72.3103 144.008 75.2648 145.739C78.2194 147.47 81.5609 148.344 84.9452 148.272C88.3294 148.199 91.6339 147.182 94.5184 145.325L135.767 118.722C138.536 116.936 140.823 114.437 142.409 111.462C143.995 108.487 144.828 105.136 144.828 101.729C144.828 98.3211 143.995 94.9703 142.409 91.9956C140.823 89.021 138.536 86.5216 135.767 84.7357L94.5184 58.1321C91.522 56.1996 88.0734 55.1752 84.5552 55.1724ZM84.5552 128.332V75.1251L125.804 101.729L84.5552 128.332Z" fill="#FF296D"/>
<path d="M183.412 64.9096C188.064 62.2237 189.658 56.275 186.972 51.6228C184.286 46.9706 178.337 45.3766 173.685 48.0626C169.033 50.7485 167.439 56.6972 170.125 61.3494C172.811 66.0016 178.76 67.5956 183.412 64.9096Z" fill="#FF296D"/>
<path d="M154.553 28.9516C157.239 24.2994 155.645 18.3507 150.993 15.6648C146.34 12.9788 140.392 14.5728 137.706 19.225C135.02 23.8772 136.614 29.8259 141.266 32.5118C145.918 35.1978 151.867 33.6038 154.553 28.9516Z" fill="#FF296D"/>
<path d="M180.645 100C180.645 115.95 175.915 131.542 167.054 144.804C158.193 158.066 145.598 168.403 130.862 174.506C116.126 180.61 99.9106 182.207 84.2669 179.096C68.6233 175.984 54.2537 168.303 42.9753 157.025C31.6969 145.746 24.0162 131.377 20.9045 115.733C17.7927 100.089 19.3898 83.8744 25.4936 69.1384C31.5975 54.4024 41.934 41.8074 55.196 32.946C68.458 24.0846 84.0499 19.3548 100 19.3548H109.677V0H100C80.2219 0 60.8879 5.86489 44.443 16.853C27.9981 27.8412 15.1809 43.459 7.61209 61.7316C0.0433283 80.0042 -1.937 100.111 1.92152 119.509C5.78004 138.907 15.3041 156.725 29.2894 170.711C43.2746 184.696 61.0929 194.22 80.491 198.078C99.8891 201.937 119.996 199.957 138.268 192.388C156.541 184.819 172.159 172.002 183.147 155.557C194.135 139.112 200 119.778 200 100V90.3226H180.645V100Z" fill="#FF296D"/>
</svg>
