<svg width="95" height="23" viewBox="0 0 95 23" fill="none" xmlns="http://www.w3.org/2000/svg">
<path d="M56.7895 22.8691C53.2666 22.8691 51.8071 18.7406 50.3476 14.7128C49.2404 11.692 48.0326 8.26839 46.2711 8.26839C44.5097 8.26839 43.5031 9.72846 42.094 12.1955C40.6848 14.6121 39.0743 17.3309 35.7527 17.3309C32.2298 17.3309 30.72 13.2024 29.3109 9.17464C28.2037 6.1538 26.9958 2.73019 25.2344 2.73019C23.4729 2.73019 22.2651 6.1538 21.1579 9.17464C19.6984 13.1521 18.2389 17.3309 14.716 17.3309C11.3441 17.3309 9.78394 14.6121 8.37478 12.1955C6.96562 9.7788 5.95908 8.26839 4.19763 8.26839C3.49305 8.26839 2.93945 7.71457 2.93945 7.00971C2.93945 6.30484 3.49305 5.75102 4.19763 5.75102C7.56955 5.75102 9.12969 8.46978 10.5388 10.8864C11.948 13.3031 12.9546 14.8135 14.716 14.8135C16.4775 14.8135 17.6853 11.3899 18.7925 8.36908C20.252 4.39165 21.7115 0.21283 25.2344 0.21283C28.7573 0.21283 30.2168 4.3413 31.6762 8.36908C32.7834 11.3899 33.9913 14.8135 35.7527 14.8135C37.5142 14.8135 38.5207 13.3535 39.9299 10.8864C41.3391 8.46978 42.9495 5.75102 46.2711 5.75102C49.794 5.75102 51.2535 9.8795 52.713 13.9073C53.8202 16.9281 55.028 20.3517 56.7895 20.3517C58.5509 20.3517 59.7588 16.9281 60.866 13.9073C62.3255 9.92984 63.785 5.75102 67.3079 5.75102C70.6798 5.75102 72.2399 8.46978 73.6491 10.8864C75.0582 13.3031 76.0648 14.8135 77.8262 14.8135C79.5877 14.8135 80.5942 13.3535 82.0034 10.8864C83.4125 8.46978 85.023 5.75102 88.3446 5.75102C89.0492 5.75102 89.6028 6.30484 89.6028 7.00971C89.6028 7.71457 89.0492 8.26839 88.3446 8.26839C86.5831 8.26839 85.5766 9.72846 84.1674 12.1955C82.7583 14.6121 81.1478 17.3309 77.8262 17.3309C74.5046 17.3309 72.8942 14.6121 71.485 12.1955C70.0758 9.7788 69.0693 8.26839 67.3079 8.26839C65.5464 8.26839 64.3385 11.692 63.2313 14.7128C61.7719 18.7406 60.3124 22.8691 56.7895 22.8691Z" fill="white"/>
<path d="M94.0818 7.0097C94.0818 9.27533 92.2197 11.1382 89.9549 11.1382C87.6902 11.1382 85.8281 9.27533 85.8281 7.0097C85.8281 4.74408 87.6902 2.88123 89.9549 2.88123C92.2197 2.88123 94.0818 4.74408 94.0818 7.0097Z" fill="#B02854"/>
<path d="M8.42503 7.0097C8.42503 9.27533 6.56293 11.1382 4.29821 11.1382C2.03349 11.1382 0.171387 9.27533 0.171387 7.0097C0.171387 4.74408 2.03349 2.88123 4.29821 2.88123C6.61326 2.88123 8.42503 4.74408 8.42503 7.0097Z" fill="#B02854"/>
</svg>
